<?xml version="1.0" standalone="no"?>
<!DOCTYPE svg PUBLIC "-//W3C//DTD SVG 20010904//EN"
 "http://www.w3.org/TR/2001/REC-SVG-20010904/DTD/svg10.dtd">
<svg version="1.0" xmlns="http://www.w3.org/2000/svg"
 width="327.000000pt" height="327.000000pt" viewBox="0 0 327.000000 327.000000"
 preserveAspectRatio="xMidYMid meet">
<metadata>
Created by potrace 1.15, written by Peter Selinger 2001-2017
</metadata>
<g transform="translate(0.000000,327.000000) scale(0.100000,-0.100000)"
fill="#000000" stroke="none">
<path d="M0 1635 l0 -1635 1635 0 1635 0 0 1635 0 1635 -1635 0 -1635 0 0
-1635z m1980 1490 c52 -9 137 -31 188 -47 l93 -31 38 37 c34 33 42 36 60 27
25 -14 26 -24 4 -61 -12 -21 -14 -35 -7 -49 5 -10 69 -74 142 -142 148 -135
267 -267 306 -339 51 -94 52 -206 3 -259 -12 -13 -59 -40 -105 -62 -45 -21
-95 -47 -111 -59 l-29 -20 -75 73 c-112 111 -238 201 -382 272 -135 67 -272
121 -283 111 -7 -8 -9 -7 88 -45 192 -75 367 -189 523 -341 l108 -105 -17 -55
c-33 -111 -51 -109 -190 22 -271 252 -460 348 -847 428 -162 34 -194 45 -202
70 -7 23 19 93 50 134 29 39 33 96 11 171 -56 185 -12 253 184 289 54 10 359
-3 450 -19z m-740 -625 c0 -20 80 -49 225 -79 83 -17 170 -37 193 -44 l44 -13
-39 -12 c-97 -29 -179 -115 -204 -215 -25 -100 13 -212 96 -285 145 -128 375
-76 456 102 28 62 26 179 -5 239 -13 26 -20 47 -17 47 25 0 178 -120 303 -237
109 -103 131 -117 181 -117 40 -1 40 -2 59 -55 70 -207 62 -490 -21 -699 -58
-146 -141 -270 -250 -375 -138 -132 -286 -215 -469 -264 -85 -23 -116 -26
-257 -26 -141 0 -172 3 -257 26 -115 30 -241 87 -337 152 -91 61 -234 210
-293 305 -220 354 -213 800 17 1145 60 91 191 222 280 282 128 86 295 156 295
123z m980 -2275 c0 -113 0 -115 -22 -115 -32 0 -101 117 -96 163 3 32 3 32 38
-28 l35 -60 3 78 c3 69 5 77 22 77 19 0 20 -7 20 -115z"/>
<path d="M853 2023 c-61 -21 -136 -92 -163 -155 -61 -139 -7 -295 130 -376 40
-24 55 -27 135 -27 73 0 98 4 130 22 52 28 107 86 136 143 31 63 31 165 -1
238 -28 65 -102 134 -167 156 -57 20 -144 19 -200 -1z"/>
<path d="M1475 1676 c-94 -41 -124 -168 -58 -247 96 -114 283 -47 283 101 0
114 -120 192 -225 146z"/>
<path d="M2037 1609 c-88 -14 -162 -72 -209 -163 -34 -64 -32 -184 4 -252 112
-213 411 -215 517 -3 109 218 -70 458 -312 418z"/>
<path d="M1247 1266 c-63 -23 -116 -64 -147 -113 -43 -67 -53 -107 -48 -182 8
-112 61 -191 160 -240 86 -44 170 -44 256 0 65 32 99 66 135 133 30 56 31 193
3 246 -58 108 -137 161 -250 167 -45 2 -85 -2 -109 -11z"/>
</g>
</svg>
